<svg width="16" height="16" viewBox="0 0 16 16" fill="none" xmlns="http://www.w3.org/2000/svg">
<g clip-path="url(#clip0_6_1286)">
<path d="M15.7969 4.25C15.6511 4.09375 15.4714 4.01302 15.2579 4.00781C15.0443 4.0026 14.8646 4.07292 14.7188 4.21875L8.00006 10.5781L1.28132 4.21875C1.13548 4.07292 0.955794 4.0026 0.742253 4.00781C0.528711 4.01302 0.349023 4.09375 0.20319 4.25C0.0573568 4.40625 -0.0103516 4.58854 6.51041e-05 4.79688C0.0104818 5.00521 0.0886068 5.18229 0.23444 5.32812L7.46882 12.1875C7.54173 12.25 7.62507 12.2995 7.71882 12.3359C7.81257 12.3724 7.90631 12.3906 8.00006 12.3906C8.09381 12.3906 8.18496 12.3724 8.2735 12.3359C8.36204 12.2995 8.44798 12.25 8.53131 12.1875L15.7657 5.32812C15.9115 5.18229 15.9896 5.00521 16.0001 4.79688C16.0105 4.58854 15.9428 4.40625 15.7969 4.25Z" fill="black"/>
</g>
<defs>
<clipPath id="clip0_6_1286">
<rect width="16" height="16" fill="white" transform="matrix(1 0 0 -1 0 16)"/>
</clipPath>
</defs>
</svg>
